<?xml version="1.0" standalone="no"?>
<svg xmlns:xlink="http://www.w3.org/1999/xlink" id="wave" style="transform:rotate(0deg); transition: 0.3s" viewBox="0 0 1440 490" version="1.1" xmlns="http://www.w3.org/2000/svg"><defs><linearGradient id="sw-gradient-0" x1="0" x2="0" y1="1" y2="0"><stop stop-color="rgba(20, 22, 24, 1)" offset="0%"/><stop stop-color="rgba(20, 22, 24, 1)" offset="100%"/></linearGradient></defs><path style="transform:translate(0, 0px); opacity:1" fill="url(#sw-gradient-0)" d="M0,343L34.3,359.3C68.6,376,137,408,206,392C274.3,376,343,310,411,245C480,180,549,114,617,122.5C685.7,131,754,212,823,236.8C891.4,261,960,229,1029,187.8C1097.1,147,1166,98,1234,65.3C1302.9,33,1371,16,1440,49C1508.6,82,1577,163,1646,236.8C1714.3,310,1783,376,1851,367.5C1920,359,1989,278,2057,236.8C2125.7,196,2194,196,2263,220.5C2331.4,245,2400,294,2469,310.3C2537.1,327,2606,310,2674,318.5C2742.9,327,2811,359,2880,318.5C2948.6,278,3017,163,3086,106.2C3154.3,49,3223,49,3291,49C3360,49,3429,49,3497,98C3565.7,147,3634,245,3703,310.3C3771.4,376,3840,408,3909,359.3C3977.1,310,4046,180,4114,179.7C4182.9,180,4251,310,4320,343C4388.6,376,4457,310,4526,294C4594.3,278,4663,310,4731,302.2C4800,294,4869,245,4903,220.5L4937.1,196L4937.1,490L4902.9,490C4868.6,490,4800,490,4731,490C4662.9,490,4594,490,4526,490C4457.1,490,4389,490,4320,490C4251.4,490,4183,490,4114,490C4045.7,490,3977,490,3909,490C3840,490,3771,490,3703,490C3634.3,490,3566,490,3497,490C3428.6,490,3360,490,3291,490C3222.9,490,3154,490,3086,490C3017.1,490,2949,490,2880,490C2811.4,490,2743,490,2674,490C2605.7,490,2537,490,2469,490C2400,490,2331,490,2263,490C2194.3,490,2126,490,2057,490C1988.6,490,1920,490,1851,490C1782.9,490,1714,490,1646,490C1577.1,490,1509,490,1440,490C1371.4,490,1303,490,1234,490C1165.7,490,1097,490,1029,490C960,490,891,490,823,490C754.3,490,686,490,617,490C548.6,490,480,490,411,490C342.9,490,274,490,206,490C137.1,490,69,490,34,490L0,490Z"/></svg>